<svg width="96" height="96" viewBox="0 0 96 96" fill="none" xmlns="http://www.w3.org/2000/svg">
<path fill-rule="evenodd" clip-rule="evenodd" d="M50 1.1547C48.7624 0.440172 47.2376 0.440173 46 1.1547L8.43079 22.8453C7.19318 23.5598 6.43079 24.8803 6.43079 26.3094V69.6906C6.43079 71.1197 7.19318 72.4402 8.43079 73.1547L46 94.8453C47.2376 95.5598 48.7624 95.5598 50 94.8453L87.5692 73.1547C88.8068 72.4402 89.5692 71.1197 89.5692 69.6906V26.3094C89.5692 24.8803 88.8068 23.5598 87.5692 22.8453L50 1.1547ZM49.961 31.1031C48.7434 30.4182 47.2566 30.4182 46.039 31.1031L22.1979 44.5137C19.4793 46.0429 19.4793 49.9571 22.1979 51.4863L46.039 64.8969C47.2566 65.5818 48.7434 65.5818 49.961 64.8969L73.8021 51.4863C76.5207 49.9571 76.5207 46.0429 73.8021 44.5137L49.961 31.1031Z" fill="#F2F2F2"/>
</svg>
