<svg width="96" height="96" viewBox="0 0 96 96" fill="none" xmlns="http://www.w3.org/2000/svg">
<path fill-rule="evenodd" clip-rule="evenodd" d="M52 2.30941C49.5248 0.880345 46.4752 0.880344 44 2.30941L10.4308 21.6906C7.95558 23.1197 6.43079 25.7607 6.43079 28.6188V67.3812C6.43079 70.2393 7.95558 72.8803 10.4308 74.3094L44 93.6906C46.4752 95.1197 49.5248 95.1197 52 93.6906L85.5692 74.3094C88.0444 72.8803 89.5692 70.2393 89.5692 67.3812V28.6188C89.5692 25.7607 88.0444 23.1197 85.5692 21.6906L52 2.30941ZM51.9221 23.2062C49.4868 21.8363 46.5132 21.8363 44.0779 23.2062L12.3957 41.0274C6.95853 44.0858 6.95854 51.9142 12.3958 54.9726L44.0779 72.7938C46.5132 74.1637 49.4868 74.1637 51.9221 72.7938L83.6043 54.9726C89.0415 51.9142 89.0415 44.0858 83.6042 41.0274L51.9221 23.2062Z" fill="#F2F2F2"/>
</svg>
