<svg width="114" height="114" viewBox="0 0 114 114" fill="none" xmlns="http://www.w3.org/2000/svg">
<path fill-rule="evenodd" clip-rule="evenodd" d="M61 2.30941C58.5248 0.880344 55.4752 0.880344 53 2.30941L11.6365 26.1906C9.16133 27.6197 7.63654 30.2607 7.63654 33.1188V80.8812C7.63654 83.7393 9.16133 86.3803 11.6365 87.8094L53 111.691C55.4752 113.12 58.5248 113.12 61 111.691L102.363 87.8094C104.839 86.3803 106.363 83.7393 106.363 80.8812V33.1188C106.363 30.2607 104.839 27.6197 102.363 26.1906L61 2.30941ZM57 77C68.0457 77 77 68.0457 77 57C77 45.9543 68.0457 37 57 37C45.9543 37 37 45.9543 37 57C37 68.0457 45.9543 77 57 77Z" fill="#F2F2F2"/>
</svg>
